<svg width="280" height="169" viewBox="0 0 280 169" fill="none" xmlns="http://www.w3.org/2000/svg">
<g clip-path="url(#clip0_492_36927)">
<mask id="mask0_492_36927" style="mask-type:luminance" maskUnits="userSpaceOnUse" x="0" y="11" width="280" height="158">
<path d="M280 11.3301H0V168.83H280V11.3301Z" fill="white"/>
</mask>
<g mask="url(#mask0_492_36927)">
<path d="M-1.15253 146.312C21.7052 146.312 40.235 127.782 40.235 104.925C40.235 82.0669 21.7052 63.5371 -1.15253 63.5371C-24.0102 63.5371 -42.54 82.0669 -42.54 104.925C-42.54 127.782 -24.0102 146.312 -1.15253 146.312Z" fill="#FFB700"/>
<path d="M19.9939 192.179C42.8516 192.179 61.3814 173.649 61.3814 150.792C61.3814 127.934 42.8516 109.404 19.9939 109.404C-2.86374 109.404 -21.3936 127.934 -21.3936 150.792C-21.3936 173.649 -2.86374 192.179 19.9939 192.179Z" fill="#FFB700"/>
<path d="M44.3047 149.332C56.6275 149.332 66.6172 139.342 66.6172 127.02C66.6172 114.697 56.6275 104.707 44.3047 104.707C31.9818 104.707 21.9922 114.697 21.9922 127.02C21.9922 139.342 31.9818 149.332 44.3047 149.332Z" fill="#FFB700"/>
<path d="M52.4564 187.498C78.9384 187.498 100.406 166.03 100.406 139.548C100.406 113.066 78.9384 91.5977 52.4564 91.5977C25.9743 91.5977 4.50635 113.066 4.50635 139.548C4.50635 166.03 25.9743 187.498 52.4564 187.498Z" fill="#FFB700"/>
<path d="M98.2932 234.849C120.555 234.849 138.602 216.802 138.602 194.541C138.602 172.279 120.555 154.232 98.2932 154.232C76.0315 154.232 57.9849 172.279 57.9849 194.541C57.9849 216.802 76.0315 234.849 98.2932 234.849Z" fill="#FFB700"/>
<path d="M140 154.334C176.114 154.334 205.391 125.057 205.391 88.9425C205.391 52.8276 176.114 23.5508 140 23.5508C103.885 23.5508 74.6079 52.8276 74.6079 88.9425C74.6079 125.057 103.885 154.334 140 154.334Z" fill="#FF7300"/>
<mask id="mask1_492_36927" style="mask-type:luminance" maskUnits="userSpaceOnUse" x="74" y="23" width="132" height="132">
<path d="M140.003 154.33C176.117 154.33 205.394 125.053 205.394 88.9385C205.394 52.8237 176.117 23.5469 140.003 23.5469C103.888 23.5469 74.6108 52.8237 74.6108 88.9385C74.6108 125.053 103.888 154.33 140.003 154.33Z" fill="white"/>
</mask>
<g mask="url(#mask1_492_36927)">
<path d="M231.309 105.289H199.503C194.59 105.289 190.607 109.272 190.607 114.185C190.607 119.098 194.59 123.081 199.503 123.081H231.309C236.222 123.081 240.205 119.098 240.205 114.185C240.205 109.272 236.222 105.289 231.309 105.289Z" fill="#FC5500"/>
</g>
<path d="M200.666 214.62C220.036 214.62 235.739 198.918 235.739 179.548C235.739 160.177 220.036 144.475 200.666 144.475C181.295 144.475 165.593 160.177 165.593 179.548C165.593 198.918 181.295 214.62 200.666 214.62Z" fill="#FFB700"/>
<path d="M261.39 212.462C292.592 212.462 317.886 187.168 317.886 155.967C317.886 124.765 292.592 99.4707 261.39 99.4707C230.189 99.4707 204.895 124.765 204.895 155.967C204.895 187.168 230.189 212.462 261.39 212.462Z" fill="#FFB700"/>
<path d="M40.7448 44.627C40.1031 44.3499 39.3885 44.1895 38.6302 44.1895C35.7135 44.1895 33.3364 46.552 33.3364 49.4832C33.3364 52.4145 33.5406 51.1457 33.9052 51.8603H40.7593C40.4093 50.7082 40.2198 49.4832 40.2198 48.2145C40.2198 46.9457 40.3948 45.7645 40.7448 44.627Z" fill="white"/>
<path d="M52.7926 35.6562C47.1051 35.6562 42.3072 39.4333 40.7613 44.625C40.4259 45.7625 40.2363 46.9583 40.2363 48.2125C40.2363 49.4667 40.4259 50.7062 40.7759 51.8583H64.7947C65.1447 50.7062 65.3342 49.4812 65.3342 48.2125C65.3342 41.2854 59.7197 35.6562 52.778 35.6562H52.7926Z" fill="white"/>
<path d="M124.848 49.5547C125.738 52.0339 128.1 53.7984 130.9 53.7984C133.7 53.7984 136.063 52.0339 136.952 49.5547" stroke="#141313" stroke-width="2.72988" stroke-linecap="round" stroke-linejoin="round"/>
<path d="M142.99 49.5547C143.88 52.0339 146.242 53.7984 149.042 53.7984C151.842 53.7984 154.205 52.0339 155.094 49.5547" stroke="#141313" stroke-width="2.72988" stroke-linecap="round" stroke-linejoin="round"/>
<path d="M112.191 54.3379C119.512 61.0316 129.268 65.115 140.002 65.115C150.735 65.115 160.491 61.0316 167.812 54.3379" stroke="#141313" stroke-width="2.72988" stroke-linecap="round" stroke-linejoin="round"/>
<path d="M213.823 105.377H193.757C190.656 105.377 188.142 107.891 188.142 110.992C188.142 114.092 190.656 116.606 193.757 116.606H213.823C216.924 116.606 219.438 114.092 219.438 110.992C219.438 107.891 216.924 105.377 213.823 105.377Z" fill="white"/>
<path d="M203.787 95.4023C197.589 95.4023 192.572 100.419 192.572 106.617C192.572 112.815 193.345 111.298 194.672 113.136H212.901C214.214 111.298 215.001 109.052 215.001 106.617C215.001 100.419 209.985 95.4023 203.787 95.4023Z" fill="white"/>
<path d="M233.946 102.535H208.761C204.879 102.535 201.731 105.682 201.731 109.564V109.579C201.731 113.461 204.879 116.608 208.761 116.608H233.946C237.828 116.608 240.975 113.461 240.975 109.579V109.564C240.975 105.682 237.828 102.535 233.946 102.535Z" fill="white"/>
<path d="M221.345 90.0352C213.587 90.0352 207.287 96.3352 207.287 104.093C207.287 111.852 208.264 109.971 209.912 112.275H232.764C234.412 109.971 235.389 107.141 235.389 104.093C235.389 96.3352 229.089 90.0352 221.331 90.0352H221.345Z" fill="white"/>
<path d="M-13.1683 194.567C15.3273 194.567 38.4275 171.466 38.4275 142.971C38.4275 114.475 15.3273 91.375 -13.1683 91.375C-41.6639 91.375 -64.7642 114.475 -64.7642 142.971C-64.7642 171.466 -41.6639 194.567 -13.1683 194.567Z" fill="white"/>
<path d="M45.5597 207.128C62.0305 207.128 75.3827 193.776 75.3827 177.305C75.3827 160.835 62.0305 147.482 45.5597 147.482C29.089 147.482 15.7368 160.835 15.7368 177.305C15.7368 193.776 29.089 207.128 45.5597 207.128Z" fill="white"/>
<path d="M262.049 205.548C281.427 205.548 297.136 189.839 297.136 170.461C297.136 151.082 281.427 135.373 262.049 135.373C242.671 135.373 226.961 151.082 226.961 170.461C226.961 189.839 242.671 205.548 262.049 205.548Z" fill="white"/>
<path d="M280.992 149.214C291.181 149.214 299.44 140.955 299.44 130.766C299.44 120.578 291.181 112.318 280.992 112.318C270.804 112.318 262.544 120.578 262.544 130.766C262.544 140.955 270.804 149.214 280.992 149.214Z" fill="white"/>
</g>
</g>
<defs>
<clipPath id="clip0_492_36927">
<rect width="280" height="168" fill="white" transform="translate(0 0.828125)"/>
</clipPath>
</defs>
</svg>
