<svg width="636" height="140" fill="none" xmlns="http://www.w3.org/2000/svg" class="css-9whsf3"><mask id="upsellFocusA" maskUnits="userSpaceOnUse" x="192" y="100" width="36" height="20"><path d="M217.93 119.044H195.8c-2.28 0-3.85-2.29-3.02-4.42l4.33-11.12c.74-1.91 2.59-3.17 4.64-3.17h22.6c2.28 0 3.85 2.29 3.02 4.42l-4.16 10.68c-.85 2.17-2.94 3.61-5.28 3.61z" fill="#EAE7E4"></path></mask><g mask="url(#upsellFocusA)"><path d="M217.93 119.044H195.8c-2.28 0-3.85-2.29-3.02-4.42l4.33-11.12c.74-1.91 2.59-3.17 4.64-3.17h22.6c2.28 0 3.85 2.29 3.02 4.42l-4.16 10.68c-.85 2.17-2.94 3.61-5.28 3.61z" fill="#EAE7E4"></path><path d="M368.49 78.964l-105.34-15.3c-3.92-.57-7.93.6-10.21 2.97l-15.03 15.7-19.18 20.04c-3.55 3.71-1.4 8.84 4.41 10.51l92.56 26.63c4.14 1.19 8.87.21 11.49-2.39l46.86-46.34.53-.52c4.31-4.24 1.06-10.26-6.09-11.3z" fill="#DAD7D5"></path></g><path d="M448.71 37.444l-20.6 6.51-10.82 3.42c-2.07.65-3.41 2.64-3.26 4.8l2.48 34.37c.22 3.02 3.19 5.04 6.08 4.12l10.03-3.17 23.31-7.36c1.5-.47 2.43-1.96 2.21-3.52l-5.29-36.57c-.29-1.96-2.26-3.2-4.14-2.6z" fill="#32AAFF"></path><mask id="upsellFocusB" maskUnits="userSpaceOnUse" x="320" y="62" width="84" height="68"><path d="M325.94 73.464l45.51-11.07c3.26-.79 6.66.67 8.33 3.59l22.76 39.82c2.45 4.29.18 9.74-4.58 11.02l-47.13 12.7c-3.44.93-7.06-.68-8.68-3.85l-21.14-41.46c-2.21-4.33.2-9.6 4.93-10.75z" fill="#0C6FF9"></path></mask><g mask="url(#upsellFocusB)"><path d="M325.94 73.464l45.51-11.07c3.26-.79 6.66.67 8.33 3.59l22.76 39.82c2.45 4.29.18 9.74-4.58 11.02l-47.13 12.7c-3.44.93-7.06-.68-8.68-3.85l-21.14-41.46c-2.21-4.33.2-9.6 4.93-10.75z" fill="#0C6FF9"></path><path d="M355.93 47.644l-107.33-5.23c-3.99-.19-7.72 2.01-9.47 5.61l-11.6 23.8-14.8 30.37c-2.74 5.63.45 12.34 6.55 13.76l97.05 22.68c4.34 1.01 8.81-1.04 10.87-4.99l36.71-70.59.42-.8c3.35-6.48-1.12-14.26-8.4-14.61z" fill="#084FFF"></path></g><path d="M365.2 28.224L259.86 6.98399c-3.92-.79-7.93.83-10.21 4.12001l-15.03 21.79-19.18 27.81c-3.55 5.15-1.4 12.27 4.41 14.59l92.56 36.95c4.14 1.65 8.87.29 11.49-3.31l46.86-64.3.53-.73c4.31-5.89 1.05-14.24-6.09-15.68z" fill="#FFE14F"></path><path d="M280.61 38.244c.24 2.9 2.26 5.46 5.22 6.25 2.97.79 6-.43 7.64-2.82M299.9 43.394c.24 2.9 2.26 5.46 5.22 6.25 2.97.79 6-.43 7.64-2.82M265.77 39.774c5.88 9.23 15.1 16.38 26.51 19.42 11.41 3.04 22.97 1.44 32.66-3.64" stroke="#FFCE00" stroke-width="3" stroke-miterlimit="10" stroke-linecap="round" stroke-linejoin="round"></path><path d="M554.39 95.984h-20.24c-3.22 0-5.23-2.61-4.48-5.83l4.67-20.24c.74-3.22 3.96-5.83 7.18-5.83h20.24c3.22 0 5.23 2.61 4.48 5.83l-4.67 20.24c-.74 3.22-3.96 5.83-7.18 5.83z" fill="#32AAFF"></path><path d="M563.5 33.544l81.61 27.8c2.43.83 4.17 2.99 4.46 5.55l3.98 35.7c.54 4.83-4.13 8.59-8.74 7.02l-76.11-25.93c-5.79-1.97-9.92-7.11-10.59-13.19l-3.33-29.93c-.56-4.84 4.12-8.59 8.72-7.02z" fill="#0C6FF9"></path><path d="M559.91 21.904l81.61 27.8c2.43.83 4.17 2.99 4.46 5.55l3.98 35.7c.54 4.83-4.13 8.59-8.74 7.02l-76.11-25.93c-5.79-1.97-9.92-7.11-10.59-13.19l-3.33-29.93c-.56-4.84 4.11-8.59 8.72-7.02z" fill="#F5F2ED"></path><mask id="upsellFocusC" maskUnits="userSpaceOnUse" x="-104" y="-4" width="175" height="144"><path d="M-61.86 14.984l52.38-18.23c5.91999-2.06 12.48.21 15.86 5.48l61.73 96.32c4.72 7.36 1.33 17.19-6.91 20.09L.690002 139.934-104 72.044l42.14-57.06z" fill="#0C6FF9"></path></mask><g mask="url(#upsellFocusC)"><path d="M-61.86 14.984l52.38-18.23c5.91999-2.06 12.48.21 15.86 5.48l61.73 96.32c4.72 7.36 1.33 17.19-6.91 20.09L.690002 139.934-104 72.044l42.14-57.06z" fill="#0C6FF9"></path><path d="M64.0398 59.324l-20.4399 80.58c-1.31 5.15 2.53 10.17 7.84 10.26l80.5801 1.39c3.82.07 7.18-2.5 8.13-6.21l20.64-81.2c1.32-5.18-2.56-10.22-7.9-10.27l-80.7802-.77c-3.81-.03-7.14 2.54-8.07 6.22z" fill="#084FFF"></path></g><path d="M52.7097 50.234l4.65 70.79c.3 4.52 4.74 7.59 9.07 6.26l65.7603-20.11c3.12-.95 5.17-3.93 4.96-7.18l-4.65-71.35c-.3-4.55-4.77-7.62-9.12-6.25l-65.7603 20.67c-3.09.97-5.12 3.93-4.91 7.17z" fill="#32AAFF"></path></svg>